<?xml version="1.0" encoding="UTF-8"?>
<svg id="Layer_2" data-name="Layer 2" xmlns="http://www.w3.org/2000/svg" viewBox="0 0 120 120">
  <defs>
    <style>
      .cls-1 {
        fill: #1a1a1a;
      }

      .cls-1, .cls-2 {
        stroke-width: 0px;
      }

      .cls-2 {
        fill: #fff;
      }
    </style>
  </defs>
  <g id="Store">
    <g id="Link-List-Icon-Gift-Cards">
      <g id="Bounding_Box" data-name="Bounding Box">
        <rect class="cls-2" width="120" height="120"/>
      </g>
      <g>
        <path class="cls-1" d="M103,94H17c-3.86,0-7-3.14-7-7v-54c0-3.86,3.14-7,7-7h86c3.86,0,7,3.14,7,7v54c0,3.86-3.14,7-7,7ZM17,30c-1.65,0-3,1.35-3,3v54c0,1.65,1.35,3,3,3h86c1.65,0,3-1.35,3-3v-54c0-1.65-1.35-3-3-3H17Z"/>
        <path class="cls-1" d="M37.16,94c-1.1,0-2-.9-2-2V28c0-1.1.9-2,2-2s2,.9,2,2v64c0,1.1-.9,2-2,2Z"/>
        <path class="cls-1" d="M108,55.73H12c-1.1,0-2-.9-2-2s.9-2,2-2h96c1.1,0,2,.9,2,2s-.9,2-2,2Z"/>
        <path class="cls-1" d="M48.46,67.03c-.51,0-1.02-.2-1.41-.59l-11.3-11.3c-.78-.78-.78-2.05,0-2.83s2.05-.78,2.83,0l11.3,11.3c.78.78.78,2.05,0,2.83-.39.39-.9.59-1.41.59Z"/>
        <path class="cls-1" d="M25.86,67.03c-.51,0-1.02-.2-1.41-.59-.78-.78-.78-2.05,0-2.83l11.3-11.3c.78-.78,2.05-.78,2.83,0s.78,2.05,0,2.83l-11.3,11.3c-.39.39-.9.59-1.41.59Z"/>
        <path class="cls-1" d="M43.42,55.73c-1.1,0-2-.9-2-2s.9-2,2-2c2.35,0,4.26-1.91,4.26-4.26s-1.91-4.26-4.26-4.26-4.26,1.91-4.26,4.26c0,1.1-.9,2-2,2s-2-.9-2-2c0-4.55,3.71-8.26,8.26-8.26s8.26,3.71,8.26,8.26-3.71,8.26-8.26,8.26Z"/>
        <path class="cls-1" d="M43.42,55.73h-6.26c-1.1,0-2-.9-2-2v-6.26c0-1.1.9-2,2-2s2,.9,2,2v4.26h4.26c1.1,0,2,.9,2,2s-.9,2-2,2Z"/>
        <path class="cls-1" d="M30.9,55.73c-4.55,0-8.26-3.71-8.26-8.26s3.71-8.26,8.26-8.26,8.26,3.71,8.26,8.26c0,1.1-.9,2-2,2s-2-.9-2-2c0-2.35-1.91-4.26-4.26-4.26s-4.26,1.91-4.26,4.26,1.91,4.26,4.26,4.26c1.1,0,2,.9,2,2s-.9,2-2,2Z"/>
        <path class="cls-1" d="M37.16,55.73h-6.26c-1.1,0-2-.9-2-2s.9-2,2-2h4.26v-4.26c0-1.1.9-2,2-2s2,.9,2,2v6.26c0,1.1-.9,2-2,2Z"/>
      </g>
    </g>
  </g>
</svg>