<?xml version="1.0" encoding="UTF-8"?>
<svg id="Layer_2" data-name="Layer 2" xmlns="http://www.w3.org/2000/svg" viewBox="0 0 120 120">
  <defs>
    <style>
      .cls-1 {
        fill: #1a1a1a;
      }

      .cls-1, .cls-2 {
        stroke-width: 0px;
      }

      .cls-2 {
        fill: #fff;
      }
    </style>
  </defs>
  <g id="Xbox">
    <g id="Link-List-Icon-Controller">
      <g id="Bounding_Box" data-name="Bounding Box">
        <rect class="cls-2" width="120" height="120"/>
      </g>
      <g>
        <path class="cls-1" d="M22.14,95.01c-1.12,0-2.31-.24-3.6-.79-4.21-1.69-10.44-14.62-7.62-25.61,3.72-14.28,10.51-27.41,14.57-35.25,1.34-2.84,3.87-5.07,7.11-6.22,9.62-3.27,12.67-1.9,16.21-.31,2.4,1.08,5.12,2.3,11.18,2.3s8.82-1.26,11.24-2.37c3.55-1.62,6.61-3.02,16,.18.06.01.11.03.16.05,3.24,1.14,5.77,3.37,7.14,6.28l.17.33c4.29,8.43,10.77,21.18,14.37,34.84,2.84,11.05-3.48,23.88-7.91,25.77-6.59,2.82-10.77-2.46-14.82-7.56-3.89-4.91-7.92-9.99-14.48-9.99h-24.02c-6.54,0-10.53,5.06-14.4,9.95-3.27,4.14-6.62,8.39-11.3,8.39ZM47.84,72.68h24.02c8.5,0,13.55,6.38,17.62,11.5,4.05,5.1,6.51,7.91,10.11,6.37,2.08-.89,8.1-11.41,5.61-21.08-3.49-13.24-9.85-25.76-14.06-34.04l-.19-.38c-.92-1.95-2.6-3.43-4.76-4.22-.04-.01-.09-.03-.13-.04-7.98-2.74-10.04-1.8-13.17-.37-2.66,1.22-5.96,2.73-12.9,2.73s-10.18-1.47-12.81-2.65c-3.11-1.39-5.16-2.31-13.26.44-2.2.78-3.92,2.27-4.83,4.21-4.01,7.76-10.68,20.65-14.28,34.48-2.47,9.62,3.27,20.04,5.27,20.91,3.72,1.57,6.19-1.25,10.24-6.38,4.03-5.11,9.05-11.47,17.53-11.47Z"/>
        <path class="cls-1" d="M60.02,49.29c-1.93,0-3.5-1.57-3.5-3.5s1.57-3.5,3.5-3.5,3.5,1.57,3.5,3.5-1.57,3.5-3.5,3.5Z"/>
      </g>
    </g>
  </g>
</svg>