<?xml version="1.0" encoding="UTF-8"?>
<svg id="Layer_2" data-name="Layer 2" xmlns="http://www.w3.org/2000/svg" viewBox="0 0 120 120">
  <defs>
    <style>
      .cls-1 {
        fill: #1a1a1a;
      }

      .cls-1, .cls-2 {
        stroke-width: 0px;
      }

      .cls-2 {
        fill: #fff;
      }
    </style>
  </defs>
  <g id="Surface">
    <g id="Link-List-Icon-Compare-Surface-Devices">
      <g id="Bounding_Box" data-name="Bounding Box">
        <rect class="cls-2" width="120" height="120"/>
      </g>
      <g>
        <path class="cls-1" d="M82.43,84.49h-6.56c-1.1,0-2-.9-2-2s.9-2,2-2h6.56c1.1,0,2,.9,2,2s-.9,2-2,2ZM43.81,78.07H12c-1.1,0-2-.9-2-2s.9-2,2-2h31.81c1.1,0,2,.9,2,2s-.9,2-2,2ZM43.68,65.22h-18.83c-4.8,0-8.56-3.76-8.56-8.56v-25.31c0-4.8,3.76-8.56,8.56-8.56h44.46c4.8,0,8.56,3.76,8.56,8.56v12.66c0,1.1-.9,2-2,2s-2-.9-2-2v-12.66c0-2.56-2-4.56-4.56-4.56H24.85c-2.56,0-4.56,2-4.56,4.56v25.31c0,2.56,2,4.56,4.56,4.56h18.83c1.1,0,2,.9,2,2s-.9,2-2,2Z"/>
        <path class="cls-1" d="M101.44,97.21h-44.46c-4.8,0-8.56-3.76-8.56-8.56v-31.61c0-4.8,3.76-8.56,8.56-8.56h44.46c4.8,0,8.56,3.76,8.56,8.56v31.61c0,4.64-3.92,8.56-8.56,8.56ZM56.98,52.49c-2.56,0-4.56,2-4.56,4.56v31.61c0,2.56,2,4.56,4.56,4.56h44.46c2.43,0,4.56-2.13,4.56-4.56v-31.61c0-2.56-2-4.56-4.56-4.56h-44.46Z"/>
      </g>
    </g>
  </g>
</svg>