<?xml version="1.0" encoding="utf-8"?>
<!-- Generator: Adobe Illustrator 28.0.0, SVG Export Plug-In . SVG Version: 6.00 Build 0)  -->
<svg version="1.1" id="Layer_1" xmlns="http://www.w3.org/2000/svg" xmlns:xlink="http://www.w3.org/1999/xlink" x="0px" y="0px"
	 viewBox="0 0 120 120" style="enable-background:new 0 0 120 120;" xml:space="preserve">
<style type="text/css">
	.st0{fill:#FFFFFF;}
	.st1{fill:none;}
	.st2{fill:#1A1A1A;}
</style>
<rect id="Bounding_Box" x="0.3" y="0.3" class="st0" width="120" height="120"/>
<g>
	<g>
		<g>
			<path class="st1" d="M40.5,55c0.6-2.4,2.5-4.3,4.9-4.9c-2.4-0.6-4.3-2.5-4.9-4.9c-0.6,2.4-2.5,4.3-4.9,4.9
				C38,50.7,39.9,52.6,40.5,55z"/>
			<path class="st1" d="M22.6,41.7c0.2,0.7,0.4,1.3,0.5,1.7c0.2-0.4,0.4-0.9,0.5-1.7c0.9-4.2,4.2-7.5,8.4-8.5
				c0.7-0.2,1.3-0.3,1.7-0.5c-0.4-0.2-0.9-0.4-1.7-0.5c-4.2-0.9-7.5-4.2-8.4-8.5c-0.2-0.7-0.4-1.3-0.5-1.7c-0.2,0.4-0.4,0.9-0.5,1.7
				c-0.9,4.2-4.2,7.5-8.4,8.5c-0.7,0.2-1.3,0.3-1.7,0.5c0.4,0.2,0.9,0.4,1.7,0.5C18.4,34.2,21.7,37.5,22.6,41.7z"/>
			<path class="st2" d="M18.8,42.5c1,4.7,3.2,5.4,4.4,5.4s3.3-0.7,4.4-5.4c0.6-2.7,2.7-4.9,5.4-5.5c4.7-1,5.4-3.2,5.4-4.3
				c0-1.2-0.7-3.3-5.4-4.4c-2.7-0.6-4.9-2.7-5.5-5.4c-1-4.7-3.2-5.4-4.4-5.4s-3.3,0.7-4.4,5.4c-0.6,2.7-2.7,4.9-5.4,5.5
				c-4.7,1-5.4,3.2-5.4,4.4c0,1.2,0.7,3.3,5.4,4.3C16.1,37.7,18.2,39.8,18.8,42.5L18.8,42.5z M14.2,32.2c4.2-0.9,7.5-4.2,8.5-8.5
				c0.2-0.7,0.4-1.3,0.5-1.7c0.2,0.4,0.4,0.9,0.5,1.7c0.9,4.2,4.2,7.5,8.4,8.5c0.7,0.2,1.3,0.3,1.7,0.5c-0.4,0.2-0.9,0.3-1.7,0.5
				c-4.2,0.9-7.5,4.2-8.4,8.5c-0.2,0.7-0.4,1.3-0.5,1.7c-0.2-0.4-0.4-0.9-0.5-1.7c-0.9-4.2-4.2-7.5-8.4-8.5
				c-0.7-0.2-1.3-0.3-1.7-0.5C12.9,32.6,13.5,32.4,14.2,32.2z"/>
			<path class="st2" d="M34.8,47.2c-2.9,0.6-3.4,2.1-3.4,2.8s0.4,2.2,3.4,2.8c1.5,0.3,2.6,1.4,2.9,2.9c0.6,2.9,2,3.4,2.8,3.4
				s2.2-0.4,2.8-3.4c0.3-1.5,1.4-2.6,2.9-2.9c2.9-0.6,3.4-2.1,3.4-2.8s-0.4-2.2-3.4-2.8c-1.5-0.3-2.6-1.4-2.9-2.9
				c-0.6-2.9-2-3.4-2.8-3.4s-2.2,0.4-2.8,3.4C37.3,45.8,36.2,46.9,34.8,47.2L34.8,47.2z M40.5,45.1c0.6,2.4,2.5,4.3,4.9,4.9
				c-2.4,0.6-4.3,2.5-4.9,4.9c-0.6-2.4-2.5-4.3-4.9-4.9C38,49.5,39.9,47.6,40.5,45.1z"/>
			<path class="st2" d="M102.6,55.9V33.1c0-3.3-2.6-5.9-5.9-5.9h-55c-1.1,0-2,0.9-2,2s0.9,2,2,2h55c1.1,0,2,0.9,2,2v22.8"/>
			<path class="st2" d="M27.1,77.7c-1.1,0-2-0.9-2-2V52.1c0-1.1-0.9-2-2-2s-2,0.9-2,2v23.6c0,3.2,2.6,5.9,5.9,5.9h24.6
				c0.6-1.4-0.7-2.7-0.1-3.9H27.1L27.1,77.7z"/>
			<path class="st2" d="M14.8,88.8c-1.1,0-2,0.9-2,2s0.9,2,2,2h33.9c0-1.6-0.1-2.5-0.1-3.9L14.8,88.8L14.8,88.8z"/>
			<path class="st2" d="M114.1,86.3c-0.2-0.6-0.3-1.3-0.5-1.9c-0.3-0.9-0.6-1.9-0.9-2.8c-2.2-6.4-5.1-12.2-7.2-16.3l-0.1-0.1l0,0
				c-0.8-1.7-2.2-3-3.9-3.8c-0.2-0.1-0.4-0.2-0.6-0.3c-0.1,0-0.1,0-0.2-0.1c-5.6-1.9-7.6-1.3-10.2-0.1c-1.4,0.7-2.9,1.3-6.4,1.3
				s-4.9-0.7-6.3-1.3c-2.6-1.2-4.6-1.8-10.2,0.2c-2.1,0.8-3.8,2.2-4.7,4.1c-0.8,1.4-1.7,3.2-2.6,5.2c-0.6,1.2-1.2,2.5-1.8,3.9
				c-1,2.2-1.9,4.6-2.8,7.1c-0.4,1.3-0.8,2.6-1.2,3.9c-0.1,0.3-0.2,0.7-0.3,1c-1.8,7,2.2,15.1,5,16.2c0.9,0.4,1.7,0.5,2.4,0.5
				c3.2,0,5.5-2.9,7.4-5.3c2.2-2.8,4.4-5.6,8-5.6h14.3c3.5,0,5.8,2.9,8,5.7c2.3,3,5.3,6.7,9.7,4.7C111.8,101.4,116,93.5,114.1,86.3
				L114.1,86.3z M107.4,99c-1.5,0.6-2.5-0.2-5.1-3.6c-2.5-3.2-5.7-7.2-11.1-7.2H76.9c-5.4,0-8.6,4-11.1,7.1
				c-2.6,3.3-3.6,4.2-5.1,3.6c-1-0.7-4.1-6.3-2.8-11.6c0.2-0.7,0.4-1.3,0.6-2c0.4-1.3,0.8-2.7,1.3-3.9c0.9-2.5,1.9-4.9,3-7.1
				c0.7-1.4,1.3-2.7,1.9-3.9c0.6-1.3,1.2-2.4,1.8-3.4c0.5-1,1.3-1.7,2.4-2.1c2.2-0.7,3.6-1,4.6-1c1.1,0,1.8,0.3,2.7,0.7
				c1.6,0.7,3.7,1.6,7.9,1.6s6.4-1,8-1.7c1.7-0.8,2.8-1.3,7.1,0.2c0,0,0.1,0,0.1,0.1c0.9,0.3,1.6,0.8,2.1,1.5
				c0.1,0.2,0.3,0.4,0.4,0.6l0.1,0.2c0.7,1.4,1.5,3,2.3,4.7c1.4,2.9,2.9,6.1,4.1,9.6c0.5,1.3,0.9,2.6,1.3,3.9
				c0.2,0.6,0.4,1.3,0.5,1.9C111.7,92.7,108.5,98.4,107.4,99L107.4,99z"/>
		</g>
		<path class="st2" d="M84.2,75.9c-1.6,0-2.9-1.3-2.9-2.9s1.3-2.9,2.9-2.9S87,71.4,87,73S85.7,75.9,84.2,75.9z"/>
	</g>
	<circle class="st2" cx="48.5" cy="90.7" r="2"/>
	<circle class="st2" cx="51.4" cy="79.7" r="2"/>
	<circle class="st2" cx="100.6" cy="55.6" r="2"/>
</g>
</svg>
